<?xml version="1.0" encoding="utf-8" standalone="no"?>
<!DOCTYPE svg PUBLIC "-//W3C//DTD SVG 1.1//EN"
  "http://www.w3.org/Graphics/SVG/1.1/DTD/svg11.dtd">
<svg xmlns:xlink="http://www.w3.org/1999/xlink" width="663.552pt" height="326.592pt" viewBox="0 0 663.552 326.592" xmlns="http://www.w3.org/2000/svg" version="1.1">
 <metadata>
  <rdf:RDF xmlns:dc="http://purl.org/dc/elements/1.1/" xmlns:cc="http://creativecommons.org/ns#" xmlns:rdf="http://www.w3.org/1999/02/22-rdf-syntax-ns#">
   <cc:Work>
    <dc:type rdf:resource="http://purl.org/dc/dcmitype/StillImage"/>
    <dc:date>2026-09-30</dc:date>
    <dc:format>image/svg+xml</dc:format>
    <dc:creator>
     <cc:Agent>
      <dc:title>physics-common-source figure script</dc:title>
     </cc:Agent>
    </dc:creator>
   </cc:Work>
  </rdf:RDF>
 </metadata>
 <defs>
  <style type="text/css">*{stroke-linejoin: round; stroke-linecap: butt}</style>
 </defs>
 <g id="figure_1">
  <g id="patch_1">
   <path d="M 0 326.592
L 663.552 326.592
L 663.552 0
L 0 0
z
" style="fill: #ffffff"/>
  </g>
  <g id="axes_1">
   <g id="patch_2">
    <path d="M 53.08416 258.00768
L 311.86944 258.00768
L 311.86944 62.05248
L 53.08416 62.05248
z
" style="fill: #ffffff"/>
   </g>
   <g id="line2d_1">
    <path d="M 139.755662 258.00768
L 139.755662 62.05248
" clip-path="url(#pcc0d72028e)" style="fill: none; stroke-dasharray: 1,1.65; stroke-dashoffset: 0; stroke: #6a8fb4; stroke-opacity: 0.9"/>
   </g>
   <g id="line2d_2">
    <path d="M 253.571994 258.00768
L 253.571994 62.05248
" clip-path="url(#pcc0d72028e)" style="fill: none; stroke-dasharray: 1,1.65; stroke-dashoffset: 0; stroke: #6a8fb4; stroke-opacity: 0.9"/>
   </g>
   <g id="line2d_3">
    <path d="M 64.847127 258.00768
L 64.847127 62.05248
" clip-path="url(#pcc0d72028e)" style="fill: none; stroke-dasharray: 1,1.65; stroke-dashoffset: 0; stroke: #15385a; stroke-opacity: 0.9"/>
   </g>
   <g id="line2d_4">
    <path d="M 300.106473 258.00768
L 300.106473 62.05248
" clip-path="url(#pcc0d72028e)" style="fill: none; stroke-dasharray: 1,1.65; stroke-dashoffset: 0; stroke: #15385a; stroke-opacity: 0.9"/>
   </g>
   <g id="matplotlib.axis_1">
    <g id="xtick_1">
     <g id="line2d_5">
      <defs>
       <path id="ma8f3bf56db" d="M 0 0
L 0 3.5
" style="stroke: #56606b; stroke-width: 0.8"/>
      </defs>
      <g>
       <use xlink:href="#ma8f3bf56db" x="69.723226" y="258.00768" style="fill: #56606b; stroke: #56606b; stroke-width: 0.8"/>
      </g>
     </g>
     <g id="text_1">
      <text style="font-size: 11px; font-family: 'Noto Serif CJK SC', 'Latin Modern Roman'; text-anchor: middle; fill: #56606b" x="69.723226" y="274.68768" transform="rotate(-0 69.723226 274.68768)">0.4</text>
     </g>
    </g>
    <g id="xtick_2">
     <g id="line2d_6">
      <g>
       <use xlink:href="#ma8f3bf56db" x="128.264287" y="258.00768" style="fill: #56606b; stroke: #56606b; stroke-width: 0.8"/>
      </g>
     </g>
     <g id="text_2">
      <text style="font-size: 11px; font-family: 'Noto Serif CJK SC', 'Latin Modern Roman'; text-anchor: middle; fill: #56606b" x="128.264287" y="274.68768" transform="rotate(-0 128.264287 274.68768)">0.6</text>
     </g>
    </g>
    <g id="xtick_3">
     <g id="line2d_7">
      <g>
       <use xlink:href="#ma8f3bf56db" x="186.805348" y="258.00768" style="fill: #56606b; stroke: #56606b; stroke-width: 0.8"/>
      </g>
     </g>
     <g id="text_3">
      <text style="font-size: 11px; font-family: 'Noto Serif CJK SC', 'Latin Modern Roman'; text-anchor: middle; fill: #56606b" x="186.805348" y="274.68768" transform="rotate(-0 186.805348 274.68768)">0.8</text>
     </g>
    </g>
    <g id="xtick_4">
     <g id="line2d_8">
      <g>
       <use xlink:href="#ma8f3bf56db" x="245.346408" y="258.00768" style="fill: #56606b; stroke: #56606b; stroke-width: 0.8"/>
      </g>
     </g>
     <g id="text_4">
      <text style="font-size: 11px; font-family: 'Noto Serif CJK SC', 'Latin Modern Roman'; text-anchor: middle; fill: #56606b" x="245.346408" y="274.68768" transform="rotate(-0 245.346408 274.68768)">1.0</text>
     </g>
    </g>
    <g id="xtick_5">
     <g id="line2d_9">
      <g>
       <use xlink:href="#ma8f3bf56db" x="303.887469" y="258.00768" style="fill: #56606b; stroke: #56606b; stroke-width: 0.8"/>
      </g>
     </g>
     <g id="text_5">
      <text style="font-size: 11px; font-family: 'Noto Serif CJK SC', 'Latin Modern Roman'; text-anchor: middle; fill: #56606b" x="303.887469" y="274.68768" transform="rotate(-0 303.887469 274.68768)">1.2</text>
     </g>
    </g>
    <g id="text_6">
     <!-- 规范幅度 $r$ -->
     <g style="fill: #1d2126" transform="translate(156.5718 289.68768)">
      <text>
       <tspan x="0" y="-0.640625" style="font-size: 11px; font-family: 'Noto Serif CJK SC'; fill: #1d2126">规</tspan>
       <tspan x="10.999924" y="-0.640625" style="font-size: 11px; font-family: 'Noto Serif CJK SC'; fill: #1d2126">范</tspan>
       <tspan x="21.999847" y="-0.640625" style="font-size: 11px; font-family: 'Noto Serif CJK SC'; fill: #1d2126">幅</tspan>
       <tspan x="32.999771" y="-0.640625" style="font-size: 11px; font-family: 'Noto Serif CJK SC'; fill: #1d2126">度</tspan>
       <tspan x="43.999695" y="-0.640625" style="font-size: 11px; font-family: 'Noto Serif CJK SC'; fill: #1d2126"> </tspan>
       <tspan x="46.815674" y="-0.640625" style="font-size: 11px; font-family: 'cmmi10'; fill: #1d2126">r</tspan>
      </text>
     </g>
    </g>
   </g>
   <g id="matplotlib.axis_2">
    <g id="ytick_1">
     <g id="line2d_10">
      <defs>
       <path id="mc14cf7bff7" d="M 0 0
L -3.5 0
" style="stroke: #56606b; stroke-width: 0.8"/>
      </defs>
      <g>
       <use xlink:href="#mc14cf7bff7" x="53.08416" y="234.255585" style="fill: #56606b; stroke: #56606b; stroke-width: 0.8"/>
      </g>
     </g>
     <g id="text_7">
      <text style="font-size: 11px; font-family: 'Noto Serif CJK SC', 'Latin Modern Roman'; text-anchor: end; fill: #56606b" x="46.08416" y="239.095585" transform="rotate(-0 46.08416 239.095585)">−2</text>
     </g>
    </g>
    <g id="ytick_2">
     <g id="line2d_11">
      <g>
       <use xlink:href="#mc14cf7bff7" x="53.08416" y="197.142833" style="fill: #56606b; stroke: #56606b; stroke-width: 0.8"/>
      </g>
     </g>
     <g id="text_8">
      <text style="font-size: 11px; font-family: 'Noto Serif CJK SC', 'Latin Modern Roman'; text-anchor: end; fill: #56606b" x="46.08416" y="201.982833" transform="rotate(-0 46.08416 201.982833)">−1</text>
     </g>
    </g>
    <g id="ytick_3">
     <g id="line2d_12">
      <g>
       <use xlink:href="#mc14cf7bff7" x="53.08416" y="160.03008" style="fill: #56606b; stroke: #56606b; stroke-width: 0.8"/>
      </g>
     </g>
     <g id="text_9">
      <text style="font-size: 11px; font-family: 'Noto Serif CJK SC', 'Latin Modern Roman'; text-anchor: end; fill: #56606b" x="46.08416" y="164.87008" transform="rotate(-0 46.08416 164.87008)">0</text>
     </g>
    </g>
    <g id="ytick_4">
     <g id="line2d_13">
      <g>
       <use xlink:href="#mc14cf7bff7" x="53.08416" y="122.917327" style="fill: #56606b; stroke: #56606b; stroke-width: 0.8"/>
      </g>
     </g>
     <g id="text_10">
      <text style="font-size: 11px; font-family: 'Noto Serif CJK SC', 'Latin Modern Roman'; text-anchor: end; fill: #56606b" x="46.08416" y="127.757327" transform="rotate(-0 46.08416 127.757327)">1</text>
     </g>
    </g>
    <g id="ytick_5">
     <g id="line2d_14">
      <g>
       <use xlink:href="#mc14cf7bff7" x="53.08416" y="85.804575" style="fill: #56606b; stroke: #56606b; stroke-width: 0.8"/>
      </g>
     </g>
     <g id="text_11">
      <text style="font-size: 11px; font-family: 'Noto Serif CJK SC', 'Latin Modern Roman'; text-anchor: end; fill: #56606b" x="46.08416" y="90.644575" transform="rotate(-0 46.08416 90.644575)">2</text>
     </g>
    </g>
    <g id="text_12">
     <!-- 共轭动量 $p$ -->
     <g style="fill: #1d2126" transform="translate(27.366504 186.21008) rotate(-90)">
      <text>
       <tspan x="0" y="-0.796875" style="font-size: 11px; font-family: 'Noto Serif CJK SC'; fill: #1d2126">共</tspan>
       <tspan x="10.999924" y="-0.796875" style="font-size: 11px; font-family: 'Noto Serif CJK SC'; fill: #1d2126">轭</tspan>
       <tspan x="21.999847" y="-0.796875" style="font-size: 11px; font-family: 'Noto Serif CJK SC'; fill: #1d2126">动</tspan>
       <tspan x="32.999771" y="-0.796875" style="font-size: 11px; font-family: 'Noto Serif CJK SC'; fill: #1d2126">量</tspan>
       <tspan x="43.999695" y="-0.796875" style="font-size: 11px; font-family: 'Noto Serif CJK SC'; fill: #1d2126"> </tspan>
       <tspan x="46.815674" y="-0.796875" style="font-size: 11px; font-family: 'cmmi10'; fill: #1d2126">p</tspan>
      </text>
     </g>
    </g>
   </g>
   <g id="line2d_15">
    <path d="M 171.703326 160.03008
L 171.818422 158.098188
L 172.162771 156.180232
L 172.733567 154.290089
L 173.526156 152.441525
L 174.534076 150.648132
L 175.80649 148.850027
L 177.293113 147.14135
L 178.980748 145.536466
L 180.936284 143.989965
L 183.074834 142.585919
L 185.375802 141.338264
L 187.817029 140.259873
L 190.479407 139.330418
L 193.240321 138.608167
L 196.071015 138.102845
L 198.942004 137.822186
L 201.712734 137.769378
L 204.466389 137.932327
L 207.176451 138.311807
L 209.816818 138.906367
L 212.362065 139.712266
L 214.693247 140.679134
L 216.893477 141.827772
L 218.943224 143.148797
L 220.824294 144.630915
L 222.453242 146.190309
L 223.898652 147.872566
L 225.148742 149.663315
L 226.193321 151.546989
L 227.023873 153.506987
L 227.633627 155.525848
L 228.017613 157.585442
L 228.172699 159.667173
L 228.097622 161.752191
L 227.792993 163.821611
L 227.261296 165.856725
L 226.506866 167.839216
L 225.535853 169.751368
L 224.356173 171.57626
L 222.977443 173.297947
L 221.410903 174.901626
L 219.669323 176.37378
L 217.680775 177.75664
L 215.534756 178.971126
L 213.250314 180.007133
L 210.847727 180.856506
L 208.242403 181.536181
L 205.557119 182.001994
L 202.817737 182.251586
L 200.050638 182.284849
L 197.1721 182.092201
L 194.322389 181.672488
L 191.531187 181.032625
L 188.827567 180.181594
L 186.239687 179.130252
L 183.794504 177.891145
L 181.601661 176.535675
L 179.585423 175.033186
L 177.765209 173.398249
L 176.218513 171.718384
L 174.882368 169.94485
L 173.768634 168.092342
L 172.919177 166.256868
L 172.289999 164.376251
L 171.886231 162.464215
L 171.711163 160.534617
L 171.703326 160.03008
L 171.703326 160.03008
" clip-path="url(#pcc0d72028e)" style="fill: none; stroke: #a9bdd2; stroke-width: 1.8; stroke-linecap: square"/>
   </g>
   <g id="line2d_16">
    <path d="M 139.755662 160.03008
L 139.867958 157.451712
L 140.2044 154.881097
L 140.763663 152.325994
L 141.543537 149.79417
L 142.540946 147.293408
L 143.751954 144.831505
L 145.267329 142.267051
L 147.011681 139.764676
L 148.977237 137.33378
L 151.155241 134.983765
L 153.682126 132.594103
L 156.423678 130.316738
L 159.366207 128.162685
L 162.495015 126.142831
L 165.794475 124.267884
L 169.444156 122.457538
L 173.245301 120.832233
L 177.176758 119.403407
L 181.21665 118.181893
L 185.342498 117.177805
L 189.309684 116.435531
L 193.313599 115.903786
L 197.334246 115.588747
L 201.351546 115.495597
L 205.345432 115.628431
L 209.29596 115.990158
L 212.969415 116.543451
L 216.570228 117.302656
L 220.082356 118.266918
L 223.490152 119.434212
L 226.778435 120.801308
L 229.932554 122.363748
L 232.765987 124.007639
L 235.45694 125.813779
L 237.994795 127.775453
L 240.369536 129.885002
L 242.57179 132.13385
L 244.592866 134.512544
L 246.424789 137.010798
L 248.060327 139.617545
L 249.493027 142.321006
L 250.717235 145.108756
L 251.728118 147.967801
L 252.521688 150.884664
L 253.094812 153.845472
L 253.445229 156.836053
L 253.571556 159.842026
L 253.473293 162.848906
L 253.15083 165.8422
L 252.605439 168.807511
L 251.839271 171.730632
L 250.855351 174.59765
L 249.657562 177.395033
L 248.250631 180.109722
L 246.640111 182.729217
L 244.832357 185.241653
L 242.834503 187.635871
L 240.654436 189.901484
L 238.300757 192.028933
L 235.782756 194.009529
L 233.110371 195.835498
L 230.294148 197.500005
L 227.345202 198.997176
L 224.079546 200.399103
L 220.691752 201.601926
L 217.196911 202.602198
L 213.610593 203.397684
L 209.948776 203.987327
L 206.227773 204.371204
L 202.241804 204.554695
L 198.227976 204.511451
L 194.206337 204.245309
L 190.19697 203.761221
L 186.219903 203.06515
L 182.07887 202.108047
L 178.018996 200.931493
L 174.06287 199.545433
L 170.232508 197.96056
L 166.549222 196.188194
L 163.033509 194.240169
L 159.87515 192.243729
L 156.900528 190.11129
L 154.1245 187.853715
L 151.560932 185.482
L 149.222625 183.007232
L 147.231602 180.585364
L 145.460804 178.09091
L 143.918119 175.533271
L 142.610422 172.92184
L 141.599539 170.423278
L 140.805969 167.893168
L 140.232845 165.339292
L 139.882428 162.769419
L 139.756101 160.191308
L 139.755662 160.03008
L 139.755662 160.03008
" clip-path="url(#pcc0d72028e)" style="fill: none; stroke: #6a8fb4; stroke-width: 1.8; stroke-linecap: square"/>
   </g>
   <g id="line2d_17">
    <path d="M 104.468725 160.03008
L 104.581424 157.030694
L 104.919226 154.036234
L 105.481251 151.051639
L 106.266035 148.081876
L 107.271533 145.131951
L 108.495124 142.206923
L 109.933622 139.311914
L 111.7188 136.233748
L 113.743468 133.203027
L 116.001508 130.226474
L 118.486096 127.310946
L 121.189725 124.463438
L 124.320242 121.496125
L 127.681963 118.624038
L 131.263225 115.856302
L 135.051606 113.202202
L 139.033965 110.671157
L 143.480045 108.117747
L 148.113557 105.726839
L 152.916214 103.510112
L 157.869063 101.479202
L 162.952557 99.645617
L 168.146634 98.020644
L 173.098289 96.69645
L 178.111946 95.573936
L 183.170214 94.661372
L 188.255547 93.966517
L 193.350305 93.496533
L 198.436816 93.25789
L 203.161219 93.248908
L 207.848791 93.450355
L 212.485367 93.865448
L 217.056935 94.496623
L 221.549682 95.345482
L 225.950032 96.412736
L 230.244686 97.698166
L 234.126591 99.086112
L 237.896053 100.659436
L 241.54325 102.415649
L 245.058679 104.351485
L 248.43318 106.462897
L 251.657961 108.745053
L 254.724619 111.192342
L 257.625163 113.798383
L 260.352035 116.556041
L 262.898131 119.457447
L 265.256816 122.494029
L 267.421944 125.656541
L 269.387875 128.935104
L 271.149484 132.319245
L 272.702183 135.79795
L 274.041926 139.359713
L 275.165221 142.992595
L 276.069141 146.684281
L 276.751333 150.422146
L 277.210017 154.19332
L 277.443999 157.984755
L 277.452669 161.783294
L 277.236004 165.575743
L 276.79457 169.348941
L 276.129516 173.089828
L 275.242575 176.785518
L 274.136058 180.423365
L 272.812849 183.991028
L 271.276395 187.476536
L 269.530699 190.868349
L 267.58031 194.155412
L 265.430311 197.32721
L 263.086303 200.373815
L 260.554394 203.285933
L 257.841181 206.054936
L 254.953734 208.672903
L 251.899576 211.13264
L 248.686665 213.427707
L 245.323374 215.552435
L 241.818465 217.501931
L 238.18107 219.272087
L 234.420669 220.859577
L 230.547058 222.261854
L 226.570331 223.477132
L 222.184274 224.575589
L 217.703902 225.455625
L 213.142753 226.117821
L 208.51461 226.563652
L 203.833459 226.79544
L 199.113446 226.816294
L 194.029369 226.608945
L 188.934689 226.169449
L 183.847079 225.504177
L 178.784185 224.620204
L 173.763572 223.525216
L 168.802652 222.227419
L 163.596186 220.629302
L 158.497762 218.821182
L 153.527502 216.814311
L 148.705022 214.620177
L 144.049352 212.250403
L 139.578867 209.716668
L 135.311211 207.030628
L 131.509481 204.384437
L 127.914017 201.623986
L 124.537289 198.75857
L 121.391011 195.797325
L 118.486096 192.749214
L 116.001508 189.833686
L 113.743468 186.857133
L 111.7188 183.826412
L 109.933622 180.748246
L 108.393328 177.629235
L 107.186407 174.702111
L 106.197801 171.750481
L 105.430087 168.7794
L 104.885265 165.79387
L 104.564755 162.798856
L 104.468725 160.03008
L 104.468725 160.03008
" clip-path="url(#pcc0d72028e)" style="fill: none; stroke: #33628f; stroke-width: 1.8; stroke-linecap: square"/>
   </g>
   <g id="line2d_18">
    <path d="M 64.847127 160.03008
L 64.956857 156.81951
L 65.285842 153.611877
L 65.833467 150.41013
L 66.598712 147.217242
L 67.580149 144.036223
L 68.775946 140.870134
L 70.322298 137.436914
L 72.11766 134.029328
L 74.158048 130.651647
L 76.43893 127.308279
L 78.955242 124.003785
L 81.701399 120.742894
L 84.92869 117.265165
L 88.410155 113.850868
L 92.136723 110.506778
L 96.098684 107.239956
L 100.616805 103.816696
L 105.382292 100.501152
L 110.380744 97.303282
L 115.597056 94.233416
L 121.015465 91.302233
L 126.619598 88.520724
L 132.392521 85.900143
L 138.316789 83.451957
L 144.3745 81.187772
L 150.547349 79.119261
L 156.816682 77.258074
L 163.163555 75.615743
L 169.109749 74.296582
L 175.090772 73.184692
L 181.09104 72.288555
L 187.094919 71.616245
L 193.086765 71.175345
L 199.050966 70.972867
L 204.518403 71.003086
L 209.936902 71.246316
L 215.294432 71.706407
L 220.5791 72.386564
L 225.779171 73.289303
L 230.883099 74.416406
L 235.46756 75.647551
L 239.953157 77.068248
L 244.331521 78.678074
L 248.594484 80.475989
L 252.734092 82.460327
L 256.742623 84.628779
L 260.612597 86.978388
L 264.336795 89.505546
L 267.908267 92.20599
L 271.320352 95.074807
L 274.566684 98.106443
L 277.641204 101.294713
L 280.538178 104.632815
L 283.252201 108.113349
L 285.778209 111.728344
L 288.11149 115.469277
L 290.24769 119.327108
L 292.182823 123.29231
L 293.91328 127.354909
L 295.435832 131.504517
L 296.747638 135.730379
L 297.846252 140.021413
L 298.729622 144.366259
L 299.396102 148.753325
L 299.844447 153.170836
L 300.073822 157.606887
L 300.083798 162.049491
L 299.874357 166.486633
L 299.44589 170.906323
L 298.799195 175.296645
L 297.93548 179.645812
L 296.856356 183.942211
L 295.563835 188.17446
L 294.06033 192.33145
L 292.348646 196.402394
L 290.431976 200.37687
L 288.313896 204.244862
L 285.998358 207.996803
L 283.489681 211.623607
L 280.792546 215.116703
L 277.911986 218.468068
L 274.853374 221.670249
L 271.622416 224.716389
L 268.225141 227.600247
L 264.667887 230.31621
L 260.957291 232.859307
L 257.100274 235.225217
L 253.104035 237.41027
L 248.976027 239.41145
L 244.723953 241.226391
L 240.355745 242.853368
L 235.879554 244.291285
L 231.30373 245.539664
L 226.636811 246.598624
L 221.451967 247.538654
L 216.180589 248.255753
L 210.834381 248.752316
L 205.425211 249.03144
L 199.96509 249.096867
L 194.46614 248.952945
L 188.47929 248.566466
L 182.4768 247.946905
L 176.47431 247.101719
L 170.48746 246.038879
L 164.531849 244.766779
L 158.170849 243.172828
L 151.883296 241.357574
L 145.688191 239.332511
L 139.604254 237.109273
L 133.64987 234.699535
L 127.843031 232.114925
L 122.201284 229.366944
L 116.741679 226.466899
L 111.480712 223.425841
L 106.434282 220.254518
L 101.617637 216.963339
L 97.045333 213.562342
L 92.731186 210.06118
L 88.967756 206.728511
L 85.447976 203.324567
L 82.181017 199.856167
L 79.175391 196.329848
L 76.639704 193.028804
L 74.339002 189.688499
L 72.278393 186.313507
L 70.462452 182.908248
L 68.895211 179.477005
L 67.580149 176.023937
L 66.598712 172.842918
L 65.833467 169.65003
L 65.285842 166.448283
L 64.956857 163.24065
L 64.847127 160.03008
L 64.847127 160.03008
" clip-path="url(#pcc0d72028e)" style="fill: none; stroke: #15385a; stroke-width: 1.8; stroke-linecap: square"/>
   </g>
   <g id="line2d_19">
    <path d="M 201.009791 258.00768
L 201.009791 62.05248
" clip-path="url(#pcc0d72028e)" style="fill: none; stroke-dasharray: 0.8,1.32; stroke-dashoffset: 0; stroke: #d7dbe0; stroke-width: 0.8"/>
   </g>
   <g id="patch_3">
    <path d="M 53.08416 258.00768
L 53.08416 62.05248
" style="fill: none; stroke: #56606b; stroke-width: 0.8; stroke-linejoin: miter; stroke-linecap: square"/>
   </g>
   <g id="patch_4">
    <path d="M 53.08416 258.00768
L 311.86944 258.00768
" style="fill: none; stroke: #56606b; stroke-width: 0.8; stroke-linejoin: miter; stroke-linecap: square"/>
   </g>
   <g id="text_13">
    <text style="font-size: 12px; font-family: 'Noto Serif CJK SC', 'Latin Modern Roman'; text-anchor: middle; fill: #56606b" x="182.4768" y="32.05248" transform="rotate(-0 182.4768 32.05248)">精确能量方程的闭合截线</text>
   </g>
   <g id="legend_1">
    <g id="line2d_20">
     <path d="M 52.5768 49.613152
L 61.5768 49.613152
L 70.5768 49.613152
" style="fill: none; stroke: #a9bdd2; stroke-width: 1.8; stroke-linecap: square"/>
    </g>
    <g id="text_14">
     <!-- $p_0=0.6$ -->
     <g style="fill: #1d2126" transform="translate(75.5768 53.113152)">
      <text>
       <tspan x="0" y="-0.34375" style="font-size: 10px; font-family: 'cmmi10'; fill: #1d2126">p</tspan>
       <tspan x="25.869905" y="-0.34375" style="font-size: 10px; font-family: 'cmmi10'; fill: #1d2126">:</tspan>
       <tspan x="5.029297" y="1.156246" style="font-size: 7px; font-family: 'cmr10'; fill: #1d2126">0</tspan>
       <tspan x="11.101344" y="-0.34375" style="font-size: 10px; font-family: 'cmr10'; fill: #1d2126">=</tspan>
       <tspan x="20.869905" y="-0.34375" style="font-size: 10px; font-family: 'cmr10'; fill: #1d2126">0</tspan>
       <tspan x="28.638459" y="-0.34375" style="font-size: 10px; font-family: 'cmr10'; fill: #1d2126">6</tspan>
      </text>
     </g>
    </g>
    <g id="line2d_21">
     <path d="M 120.2768 49.613152
L 129.2768 49.613152
L 138.2768 49.613152
" style="fill: none; stroke: #6a8fb4; stroke-width: 1.8; stroke-linecap: square"/>
    </g>
    <g id="text_15">
     <!-- $p_0=1.2$ -->
     <g style="fill: #1d2126" transform="translate(143.2768 53.113152)">
      <text>
       <tspan x="0" y="-0.34375" style="font-size: 10px; font-family: 'cmmi10'; fill: #1d2126">p</tspan>
       <tspan x="25.869905" y="-0.34375" style="font-size: 10px; font-family: 'cmmi10'; fill: #1d2126">:</tspan>
       <tspan x="5.029297" y="1.156246" style="font-size: 7px; font-family: 'cmr10'; fill: #1d2126">0</tspan>
       <tspan x="11.101344" y="-0.34375" style="font-size: 10px; font-family: 'cmr10'; fill: #1d2126">=</tspan>
       <tspan x="20.869905" y="-0.34375" style="font-size: 10px; font-family: 'cmr10'; fill: #1d2126">1</tspan>
       <tspan x="28.638459" y="-0.34375" style="font-size: 10px; font-family: 'cmr10'; fill: #1d2126">2</tspan>
      </text>
     </g>
    </g>
    <g id="line2d_22">
     <path d="M 187.9768 49.613152
L 196.9768 49.613152
L 205.9768 49.613152
" style="fill: none; stroke: #33628f; stroke-width: 1.8; stroke-linecap: square"/>
    </g>
    <g id="text_16">
     <!-- $p_0=1.8$ -->
     <g style="fill: #1d2126" transform="translate(210.9768 53.113152)">
      <text>
       <tspan x="0" y="-0.34375" style="font-size: 10px; font-family: 'cmmi10'; fill: #1d2126">p</tspan>
       <tspan x="25.869905" y="-0.34375" style="font-size: 10px; font-family: 'cmmi10'; fill: #1d2126">:</tspan>
       <tspan x="5.029297" y="1.156246" style="font-size: 7px; font-family: 'cmr10'; fill: #1d2126">0</tspan>
       <tspan x="11.101344" y="-0.34375" style="font-size: 10px; font-family: 'cmr10'; fill: #1d2126">=</tspan>
       <tspan x="20.869905" y="-0.34375" style="font-size: 10px; font-family: 'cmr10'; fill: #1d2126">1</tspan>
       <tspan x="28.638459" y="-0.34375" style="font-size: 10px; font-family: 'cmr10'; fill: #1d2126">8</tspan>
      </text>
     </g>
    </g>
    <g id="line2d_23">
     <path d="M 255.6768 49.613152
L 264.6768 49.613152
L 273.6768 49.613152
" style="fill: none; stroke: #15385a; stroke-width: 1.8; stroke-linecap: square"/>
    </g>
    <g id="text_17">
     <!-- $p_0=2.4$ -->
     <g style="fill: #1d2126" transform="translate(278.6768 53.113152)">
      <text>
       <tspan x="0" y="-0.34375" style="font-size: 10px; font-family: 'cmmi10'; fill: #1d2126">p</tspan>
       <tspan x="25.869905" y="-0.34375" style="font-size: 10px; font-family: 'cmmi10'; fill: #1d2126">:</tspan>
       <tspan x="5.029297" y="1.156246" style="font-size: 7px; font-family: 'cmr10'; fill: #1d2126">0</tspan>
       <tspan x="11.101344" y="-0.34375" style="font-size: 10px; font-family: 'cmr10'; fill: #1d2126">=</tspan>
       <tspan x="20.869905" y="-0.34375" style="font-size: 10px; font-family: 'cmr10'; fill: #1d2126">2</tspan>
       <tspan x="28.638459" y="-0.34375" style="font-size: 10px; font-family: 'cmr10'; fill: #1d2126">4</tspan>
      </text>
     </g>
    </g>
   </g>
   <g id="PathCollection_1">
    <defs>
     <path id="m2148144275" d="M 0 2.738613
C 0.726289 2.738613 1.422928 2.450055 1.936492 1.936492
C 2.450055 1.422928 2.738613 0.726289 2.738613 0
C 2.738613 -0.726289 2.450055 -1.422928 1.936492 -1.936492
C 1.422928 -2.450055 0.726289 -2.738613 0 -2.738613
C -0.726289 -2.738613 -1.422928 -2.450055 -1.936492 -1.936492
C -2.450055 -1.422928 -2.738613 -0.726289 -2.738613 0
C -2.738613 0.726289 -2.450055 1.422928 -1.936492 1.936492
C -1.422928 2.450055 -0.726289 2.738613 0 2.738613
z
" style="stroke: #1d2126"/>
    </defs>
    <g clip-path="url(#pcc0d72028e)">
     <use xlink:href="#m2148144275" x="201.009791" y="160.03008" style="fill: #1d2126; stroke: #1d2126"/>
    </g>
   </g>
  </g>
  <g id="axes_2">
   <g id="patch_5">
    <path d="M 378.22464 258.00768
L 643.64544 258.00768
L 643.64544 62.05248
L 378.22464 62.05248
z
" style="fill: #ffffff"/>
   </g>
   <g id="matplotlib.axis_3">
    <g id="xtick_6">
     <g id="line2d_24">
      <g>
       <use xlink:href="#ma8f3bf56db" x="390.562413" y="258.00768" style="fill: #56606b; stroke: #56606b; stroke-width: 0.8"/>
      </g>
     </g>
     <g id="text_18">
      <text style="font-size: 11px; font-family: 'Noto Serif CJK SC', 'Latin Modern Roman'; text-anchor: middle; fill: #56606b" x="390.562413" y="274.68768" transform="rotate(-0 390.562413 274.68768)">0.2</text>
     </g>
    </g>
    <g id="xtick_7">
     <g id="line2d_25">
      <g>
       <use xlink:href="#ma8f3bf56db" x="427.684203" y="258.00768" style="fill: #56606b; stroke: #56606b; stroke-width: 0.8"/>
      </g>
     </g>
     <g id="text_19">
      <text style="font-size: 11px; font-family: 'Noto Serif CJK SC', 'Latin Modern Roman'; text-anchor: middle; fill: #56606b" x="427.684203" y="274.68768" transform="rotate(-0 427.684203 274.68768)">0.4</text>
     </g>
    </g>
    <g id="xtick_8">
     <g id="line2d_26">
      <g>
       <use xlink:href="#ma8f3bf56db" x="464.805993" y="258.00768" style="fill: #56606b; stroke: #56606b; stroke-width: 0.8"/>
      </g>
     </g>
     <g id="text_20">
      <text style="font-size: 11px; font-family: 'Noto Serif CJK SC', 'Latin Modern Roman'; text-anchor: middle; fill: #56606b" x="464.805993" y="274.68768" transform="rotate(-0 464.805993 274.68768)">0.6</text>
     </g>
    </g>
    <g id="xtick_9">
     <g id="line2d_27">
      <g>
       <use xlink:href="#ma8f3bf56db" x="501.927783" y="258.00768" style="fill: #56606b; stroke: #56606b; stroke-width: 0.8"/>
      </g>
     </g>
     <g id="text_21">
      <text style="font-size: 11px; font-family: 'Noto Serif CJK SC', 'Latin Modern Roman'; text-anchor: middle; fill: #56606b" x="501.927783" y="274.68768" transform="rotate(-0 501.927783 274.68768)">0.8</text>
     </g>
    </g>
    <g id="xtick_10">
     <g id="line2d_28">
      <g>
       <use xlink:href="#ma8f3bf56db" x="539.049574" y="258.00768" style="fill: #56606b; stroke: #56606b; stroke-width: 0.8"/>
      </g>
     </g>
     <g id="text_22">
      <text style="font-size: 11px; font-family: 'Noto Serif CJK SC', 'Latin Modern Roman'; text-anchor: middle; fill: #56606b" x="539.049574" y="274.68768" transform="rotate(-0 539.049574 274.68768)">1.0</text>
     </g>
    </g>
    <g id="xtick_11">
     <g id="line2d_29">
      <g>
       <use xlink:href="#ma8f3bf56db" x="576.171364" y="258.00768" style="fill: #56606b; stroke: #56606b; stroke-width: 0.8"/>
      </g>
     </g>
     <g id="text_23">
      <text style="font-size: 11px; font-family: 'Noto Serif CJK SC', 'Latin Modern Roman'; text-anchor: middle; fill: #56606b" x="576.171364" y="274.68768" transform="rotate(-0 576.171364 274.68768)">1.2</text>
     </g>
    </g>
    <g id="xtick_12">
     <g id="line2d_30">
      <g>
       <use xlink:href="#ma8f3bf56db" x="613.293154" y="258.00768" style="fill: #56606b; stroke: #56606b; stroke-width: 0.8"/>
      </g>
     </g>
     <g id="text_24">
      <text style="font-size: 11px; font-family: 'Noto Serif CJK SC', 'Latin Modern Roman'; text-anchor: middle; fill: #56606b" x="613.293154" y="274.68768" transform="rotate(-0 613.293154 274.68768)">1.4</text>
     </g>
    </g>
    <g id="text_25">
     <!-- 规范幅度 $r$ -->
     <g style="fill: #1d2126" transform="translate(485.03004 289.68768)">
      <text>
       <tspan x="0" y="-0.640625" style="font-size: 11px; font-family: 'Noto Serif CJK SC'; fill: #1d2126">规</tspan>
       <tspan x="10.999924" y="-0.640625" style="font-size: 11px; font-family: 'Noto Serif CJK SC'; fill: #1d2126">范</tspan>
       <tspan x="21.999847" y="-0.640625" style="font-size: 11px; font-family: 'Noto Serif CJK SC'; fill: #1d2126">幅</tspan>
       <tspan x="32.999771" y="-0.640625" style="font-size: 11px; font-family: 'Noto Serif CJK SC'; fill: #1d2126">度</tspan>
       <tspan x="43.999695" y="-0.640625" style="font-size: 11px; font-family: 'Noto Serif CJK SC'; fill: #1d2126"> </tspan>
       <tspan x="46.815674" y="-0.640625" style="font-size: 11px; font-family: 'cmmi10'; fill: #1d2126">r</tspan>
      </text>
     </g>
    </g>
   </g>
   <g id="matplotlib.axis_4">
    <g id="ytick_6">
     <g id="line2d_31">
      <g>
       <use xlink:href="#mc14cf7bff7" x="378.22464" y="254.721243" style="fill: #56606b; stroke: #56606b; stroke-width: 0.8"/>
      </g>
     </g>
     <g id="text_26">
      <text style="font-size: 11px; font-family: 'Noto Serif CJK SC', 'Latin Modern Roman'; text-anchor: end; fill: #56606b" x="371.22464" y="259.561243" transform="rotate(-0 371.22464 259.561243)">0</text>
     </g>
    </g>
    <g id="ytick_7">
     <g id="line2d_32">
      <g>
       <use xlink:href="#mc14cf7bff7" x="378.22464" y="227.334271" style="fill: #56606b; stroke: #56606b; stroke-width: 0.8"/>
      </g>
     </g>
     <g id="text_27">
      <text style="font-size: 11px; font-family: 'Noto Serif CJK SC', 'Latin Modern Roman'; text-anchor: end; fill: #56606b" x="371.22464" y="232.174271" transform="rotate(-0 371.22464 232.174271)">1</text>
     </g>
    </g>
    <g id="ytick_8">
     <g id="line2d_33">
      <g>
       <use xlink:href="#mc14cf7bff7" x="378.22464" y="199.947298" style="fill: #56606b; stroke: #56606b; stroke-width: 0.8"/>
      </g>
     </g>
     <g id="text_28">
      <text style="font-size: 11px; font-family: 'Noto Serif CJK SC', 'Latin Modern Roman'; text-anchor: end; fill: #56606b" x="371.22464" y="204.787298" transform="rotate(-0 371.22464 204.787298)">2</text>
     </g>
    </g>
    <g id="ytick_9">
     <g id="line2d_34">
      <g>
       <use xlink:href="#mc14cf7bff7" x="378.22464" y="172.560325" style="fill: #56606b; stroke: #56606b; stroke-width: 0.8"/>
      </g>
     </g>
     <g id="text_29">
      <text style="font-size: 11px; font-family: 'Noto Serif CJK SC', 'Latin Modern Roman'; text-anchor: end; fill: #56606b" x="371.22464" y="177.400325" transform="rotate(-0 371.22464 177.400325)">3</text>
     </g>
    </g>
    <g id="ytick_10">
     <g id="line2d_35">
      <g>
       <use xlink:href="#mc14cf7bff7" x="378.22464" y="145.173353" style="fill: #56606b; stroke: #56606b; stroke-width: 0.8"/>
      </g>
     </g>
     <g id="text_30">
      <text style="font-size: 11px; font-family: 'Noto Serif CJK SC', 'Latin Modern Roman'; text-anchor: end; fill: #56606b" x="371.22464" y="150.013353" transform="rotate(-0 371.22464 150.013353)">4</text>
     </g>
    </g>
    <g id="ytick_11">
     <g id="line2d_36">
      <g>
       <use xlink:href="#mc14cf7bff7" x="378.22464" y="117.78638" style="fill: #56606b; stroke: #56606b; stroke-width: 0.8"/>
      </g>
     </g>
     <g id="text_31">
      <text style="font-size: 11px; font-family: 'Noto Serif CJK SC', 'Latin Modern Roman'; text-anchor: end; fill: #56606b" x="371.22464" y="122.62638" transform="rotate(-0 371.22464 122.62638)">5</text>
     </g>
    </g>
    <g id="ytick_12">
     <g id="line2d_37">
      <g>
       <use xlink:href="#mc14cf7bff7" x="378.22464" y="90.399408" style="fill: #56606b; stroke: #56606b; stroke-width: 0.8"/>
      </g>
     </g>
     <g id="text_32">
      <text style="font-size: 11px; font-family: 'Noto Serif CJK SC', 'Latin Modern Roman'; text-anchor: end; fill: #56606b" x="371.22464" y="95.239408" transform="rotate(-0 371.22464 95.239408)">6</text>
     </g>
    </g>
    <g id="ytick_13">
     <g id="line2d_38">
      <g>
       <use xlink:href="#mc14cf7bff7" x="378.22464" y="63.012435" style="fill: #56606b; stroke: #56606b; stroke-width: 0.8"/>
      </g>
     </g>
     <g id="text_33">
      <text style="font-size: 11px; font-family: 'Noto Serif CJK SC', 'Latin Modern Roman'; text-anchor: end; fill: #56606b" x="371.22464" y="67.852435" transform="rotate(-0 371.22464 67.852435)">7</text>
     </g>
    </g>
    <g id="text_34">
     <text style="font-size: 11px; font-family: 'Noto Serif CJK SC', 'Latin Modern Roman'; text-anchor: middle; fill: #1d2126" x="359.766984" y="160.03008" transform="rotate(-90 359.766984 160.03008)">相对势能</text>
    </g>
   </g>
   <g id="line2d_39">
    <path d="M 390.289222 187.744297
L 405.973178 200.346837
L 417.635607 209.45071
L 427.287273 216.721412
L 435.73248 222.822132
L 443.373382 228.080121
L 450.209978 232.53293
L 456.644422 236.471648
L 462.676713 239.911609
L 468.306851 242.875164
L 473.534836 245.390841
L 478.762822 247.657329
L 483.588655 249.509149
L 488.414487 251.111626
L 492.838167 252.345451
L 497.261847 253.338935
L 501.283375 254.020512
L 505.304902 254.478674
L 509.326429 254.7011
L 512.945804 254.689284
L 516.565178 254.466832
L 520.184553 254.024077
L 523.803927 253.351135
L 527.423302 252.437905
L 531.042676 251.274071
L 534.662051 249.849098
L 537.879273 248.35454
L 541.096495 246.637464
L 544.313716 244.690038
L 547.530938 242.504298
L 550.74816 240.072142
L 553.965382 237.385333
L 557.182604 234.435501
L 560.399825 231.214137
L 564.0192 227.254771
L 567.638575 222.928295
L 571.257949 218.221982
L 574.877324 213.122888
L 578.496698 207.617852
L 582.116073 201.693495
L 585.735447 195.336222
L 589.354822 188.532221
L 592.974196 181.267465
L 596.593571 173.527706
L 600.212945 165.298483
L 604.234473 155.562977
L 608.256 145.184616
L 612.277527 134.142618
L 616.299055 122.415871
L 620.320582 109.982935
L 624.342109 96.822035
L 628.363636 82.911068
L 631.580858 71.227183
L 631.580858 71.227183
" clip-path="url(#p0c7bb0324b)" style="fill: none; stroke: #1d2126; stroke-width: 2.2; stroke-linecap: square"/>
   </g>
   <g id="line2d_40">
    <path d="M 390.289222 216.69507
L 397.527971 221.121317
L 404.364567 225.050266
L 411.201164 228.735002
L 418.03776 232.175525
L 424.874356 235.371836
L 431.710953 238.323935
L 438.547549 241.031821
L 445.384145 243.495495
L 452.220742 245.714955
L 459.057338 247.690204
L 465.893935 249.42124
L 472.328378 250.827363
L 478.762822 252.01716
L 485.197265 252.99063
L 491.631709 253.747773
L 498.066153 254.28859
L 504.500596 254.61308
L 510.93504 254.721243
L 517.369484 254.61308
L 523.803927 254.28859
L 530.238371 253.747773
L 536.672815 252.99063
L 543.107258 252.01716
L 549.541702 250.827363
L 555.976145 249.42124
L 562.410589 247.79879
L 569.247185 245.837907
L 576.083782 243.632811
L 582.920378 241.183503
L 589.756975 238.489983
L 596.593571 235.55225
L 603.430167 232.370304
L 610.266764 228.944146
L 617.10336 225.273775
L 623.939956 221.359192
L 630.776553 217.200396
L 631.580858 216.69507
L 631.580858 216.69507
" clip-path="url(#p0c7bb0324b)" style="fill: none; stroke-dasharray: 6.66,2.88; stroke-dashoffset: 0; stroke: #b88a1e; stroke-width: 1.8"/>
   </g>
   <g id="line2d_41">
    <path d="M 390.289222 225.77047
L 397.527971 227.199212
L 405.168873 228.933772
L 413.61408 231.089313
L 422.863593 233.68813
L 434.123869 237.095454
L 468.306851 247.62252
L 476.349905 249.768519
L 483.186502 251.375684
L 489.620945 252.657932
L 495.251084 253.560766
L 500.479069 254.1873
L 505.707055 254.583135
L 510.532887 254.7204
L 514.956567 254.634569
L 519.380247 254.328336
L 523.803927 253.783788
L 527.825455 253.06647
L 531.846982 252.122828
L 535.868509 250.938364
L 539.487884 249.654191
L 543.107258 248.151903
L 546.726633 246.420242
L 550.346007 244.447733
L 553.965382 242.222685
L 557.584756 239.733191
L 561.204131 236.967125
L 564.823505 233.912146
L 568.44288 230.555695
L 572.062255 226.884996
L 575.681629 222.887056
L 579.301004 218.548668
L 582.920378 213.856403
L 586.539753 208.796619
L 590.159127 203.355456
L 593.778502 197.518837
L 597.397876 191.272468
L 601.017251 184.601838
L 604.636625 177.49222
L 608.256 169.928669
L 612.277527 160.973885
L 616.299055 151.418856
L 620.320582 141.242139
L 624.342109 130.421961
L 628.363636 118.93622
L 631.580858 109.253356
L 631.580858 109.253356
" clip-path="url(#p0c7bb0324b)" style="fill: none; stroke-dasharray: 2,3.3; stroke-dashoffset: 0; stroke: #c4532d; stroke-width: 2"/>
   </g>
   <g id="patch_6">
    <path d="M 378.22464 258.00768
L 378.22464 62.05248
" style="fill: none; stroke: #56606b; stroke-width: 0.8; stroke-linejoin: miter; stroke-linecap: square"/>
   </g>
   <g id="patch_7">
    <path d="M 378.22464 258.00768
L 643.64544 258.00768
" style="fill: none; stroke: #56606b; stroke-width: 0.8; stroke-linejoin: miter; stroke-linecap: square"/>
   </g>
   <g id="text_35">
    <!-- $p_0=1.2$ -->
    <g style="fill: #6a8fb4" transform="translate(491.329198 242.256107)">
     <text>
      <tspan x="0" y="-0.34375" style="font-size: 10px; font-family: 'cmmi10'; fill: #6a8fb4">p</tspan>
      <tspan x="25.869905" y="-0.34375" style="font-size: 10px; font-family: 'cmmi10'; fill: #6a8fb4">:</tspan>
      <tspan x="5.029297" y="1.156246" style="font-size: 7px; font-family: 'cmr10'; fill: #6a8fb4">0</tspan>
      <tspan x="11.101344" y="-0.34375" style="font-size: 10px; font-family: 'cmr10'; fill: #6a8fb4">=</tspan>
      <tspan x="20.869905" y="-0.34375" style="font-size: 10px; font-family: 'cmr10'; fill: #6a8fb4">1</tspan>
      <tspan x="28.638459" y="-0.34375" style="font-size: 10px; font-family: 'cmr10'; fill: #6a8fb4">2</tspan>
     </text>
    </g>
   </g>
   <g id="text_36">
    <!-- $p_0=2.4$ -->
    <g style="fill: #15385a" transform="translate(482.332984 212.255182)">
     <text>
      <tspan x="0" y="-0.34375" style="font-size: 10px; font-family: 'cmmi10'; fill: #15385a">p</tspan>
      <tspan x="25.869905" y="-0.34375" style="font-size: 10px; font-family: 'cmmi10'; fill: #15385a">:</tspan>
      <tspan x="5.029297" y="1.156246" style="font-size: 7px; font-family: 'cmr10'; fill: #15385a">0</tspan>
      <tspan x="11.101344" y="-0.34375" style="font-size: 10px; font-family: 'cmr10'; fill: #15385a">=</tspan>
      <tspan x="20.869905" y="-0.34375" style="font-size: 10px; font-family: 'cmr10'; fill: #15385a">2</tspan>
      <tspan x="28.638459" y="-0.34375" style="font-size: 10px; font-family: 'cmr10'; fill: #15385a">4</tspan>
     </text>
    </g>
   </g>
   <g id="text_37">
    <text style="font-size: 12px; font-family: 'Noto Serif CJK SC', 'Latin Modern Roman'; text-anchor: middle; fill: #56606b" x="510.93504" y="32.05248" transform="rotate(-0 510.93504 32.05248)">非负分解；余项仍贡献局部二阶曲率</text>
   </g>
   <g id="line2d_42">
    <path d="M 472.092852 244.720935
L 544.265544 244.720935
" clip-path="url(#p0c7bb0324b)" style="fill: none; stroke: #6a8fb4; stroke-width: 1.3; stroke-linecap: square"/>
   </g>
   <g id="line2d_43">
    <path d="M 424.592193 214.720009
L 573.773775 214.720009
" clip-path="url(#p0c7bb0324b)" style="fill: none; stroke: #15385a; stroke-width: 1.3; stroke-linecap: square"/>
   </g>
   <g id="legend_2">
    <g id="line2d_44">
     <path d="M 387.22464 76.35248
L 397.22464 76.35248
L 407.22464 76.35248
" style="fill: none; stroke: #1d2126; stroke-width: 2.2; stroke-linecap: square"/>
    </g>
    <g id="text_38">
     <!-- $V(r)-V(a)$ -->
     <g style="fill: #1d2126" transform="translate(415.22464 79.85248)">
      <text>
       <tspan x="0" y="-0.5" style="font-size: 10px; font-family: 'cmmi10'; fill: #1d2126">V</tspan>
       <tspan x="9.711914" y="-0.5" style="font-size: 10px; font-family: 'cmmi10'; fill: #1d2126">r</tspan>
       <tspan x="29.874035" y="-0.5" style="font-size: 10px; font-family: 'cmmi10'; fill: #1d2126">V</tspan>
       <tspan x="39.585949" y="-0.5" style="font-size: 10px; font-family: 'cmmi10'; fill: #1d2126">a</tspan>
       <tspan x="5.830078" y="-0.5" style="font-size: 10px; font-family: 'cmr10'; fill: #1d2126">(</tspan>
       <tspan x="14.223633" y="-0.5" style="font-size: 10px; font-family: 'cmr10'; fill: #1d2126">)</tspan>
       <tspan x="35.704113" y="-0.5" style="font-size: 10px; font-family: 'cmr10'; fill: #1d2126">(</tspan>
       <tspan x="44.864269" y="-0.5" style="font-size: 10px; font-family: 'cmr10'; fill: #1d2126">)</tspan>
       <tspan x="20.105474" y="-0.5" style="font-size: 10px; font-family: 'cmsy10'; fill: #1d2126">¡</tspan>
      </text>
     </g>
    </g>
    <g id="line2d_45">
     <path d="M 387.22464 92.65248
L 397.22464 92.65248
L 407.22464 92.65248
" style="fill: none; stroke-dasharray: 6.66,2.88; stroke-dashoffset: 0; stroke: #b88a1e; stroke-width: 1.8"/>
    </g>
    <g id="text_39">
     <!-- $c(r-a)^2$：全局下界 -->
     <g style="fill: #1d2126" transform="translate(415.22464 96.15248)">
      <text>
       <tspan x="0" y="-0.211702" style="font-size: 10px; font-family: 'cmmi10'; fill: #1d2126">c</tspan>
       <tspan x="8.203125" y="-0.211702" style="font-size: 10px; font-family: 'cmmi10'; fill: #1d2126">r</tspan>
       <tspan x="24.48341" y="-0.211702" style="font-size: 10px; font-family: 'cmmi10'; fill: #1d2126">a</tspan>
       <tspan x="4.321289" y="-0.211702" style="font-size: 10px; font-family: 'cmr10'; fill: #1d2126">(</tspan>
       <tspan x="29.76173" y="-0.211702" style="font-size: 10px; font-family: 'cmr10'; fill: #1d2126">)</tspan>
       <tspan x="14.714849" y="-0.211702" style="font-size: 10px; font-family: 'cmsy10'; fill: #1d2126">¡</tspan>
       <tspan x="34.043995" y="-4.340625" style="font-size: 7px; font-family: 'cmr10'; fill: #1d2126">2</tspan>
       <tspan x="38.116037" y="-0.211702" style="font-size: 10px; font-family: 'Noto Serif CJK SC'; fill: #1d2126">：</tspan>
       <tspan x="48.116022" y="-0.211702" style="font-size: 10px; font-family: 'Noto Serif CJK SC'; fill: #1d2126">全</tspan>
       <tspan x="58.116006" y="-0.211702" style="font-size: 10px; font-family: 'Noto Serif CJK SC'; fill: #1d2126">局</tspan>
       <tspan x="68.115991" y="-0.211702" style="font-size: 10px; font-family: 'Noto Serif CJK SC'; fill: #1d2126">下</tspan>
       <tspan x="78.115976" y="-0.211702" style="font-size: 10px; font-family: 'Noto Serif CJK SC'; fill: #1d2126">界</tspan>
      </text>
     </g>
    </g>
    <g id="line2d_46">
     <path d="M 387.22464 108.95248
L 397.22464 108.95248
L 407.22464 108.95248
" style="fill: none; stroke-dasharray: 2,3.3; stroke-dashoffset: 0; stroke: #c4532d; stroke-width: 2"/>
    </g>
    <g id="text_40">
     <text style="font-size: 10px; font-family: 'Noto Serif CJK SC', 'Latin Modern Roman'; text-anchor: start; fill: #1d2126" x="415.22464" y="112.45248" transform="rotate(-0 415.22464 112.45248)">非负四次余项</text>
    </g>
   </g>
   <g id="PathCollection_2">
    <defs>
     <path id="mb88b6827aa" d="M 0 2.345208
C 0.621956 2.345208 1.218523 2.098102 1.658312 1.658312
C 2.098102 1.218523 2.345208 0.621956 2.345208 0
C 2.345208 -0.621956 2.098102 -1.218523 1.658312 -1.658312
C 1.218523 -2.098102 0.621956 -2.345208 0 -2.345208
C -0.621956 -2.345208 -1.218523 -2.098102 -1.658312 -1.658312
C -2.098102 -1.218523 -2.345208 -0.621956 -2.345208 0
C -2.345208 0.621956 -2.098102 1.218523 -1.658312 1.658312
C -1.218523 2.098102 -0.621956 2.345208 0 2.345208
z
" style="stroke: #6a8fb4"/>
    </defs>
    <g clip-path="url(#p0c7bb0324b)">
     <use xlink:href="#mb88b6827aa" x="472.092852" y="244.720935" style="fill: #6a8fb4; stroke: #6a8fb4"/>
     <use xlink:href="#mb88b6827aa" x="544.265544" y="244.720935" style="fill: #6a8fb4; stroke: #6a8fb4"/>
    </g>
   </g>
   <g id="PathCollection_3">
    <defs>
     <path id="m8fe132d299" d="M 0 2.345208
C 0.621956 2.345208 1.218523 2.098102 1.658312 1.658312
C 2.098102 1.218523 2.345208 0.621956 2.345208 0
C 2.345208 -0.621956 2.098102 -1.218523 1.658312 -1.658312
C 1.218523 -2.098102 0.621956 -2.345208 0 -2.345208
C -0.621956 -2.345208 -1.218523 -2.098102 -1.658312 -1.658312
C -2.098102 -1.218523 -2.345208 -0.621956 -2.345208 0
C -2.345208 0.621956 -2.098102 1.218523 -1.658312 1.658312
C -1.218523 2.098102 -0.621956 2.345208 0 2.345208
z
" style="stroke: #15385a"/>
    </defs>
    <g clip-path="url(#p0c7bb0324b)">
     <use xlink:href="#m8fe132d299" x="424.592193" y="214.720009" style="fill: #15385a; stroke: #15385a"/>
     <use xlink:href="#m8fe132d299" x="573.773775" y="214.720009" style="fill: #15385a; stroke: #15385a"/>
    </g>
   </g>
   <g id="PathCollection_4">
    <defs>
     <path id="m6747e8dc90" d="M 0 2.54951
C 0.676138 2.54951 1.324674 2.280877 1.802776 1.802776
C 2.280877 1.324674 2.54951 0.676138 2.54951 0
C 2.54951 -0.676138 2.280877 -1.324674 1.802776 -1.802776
C 1.324674 -2.280877 0.676138 -2.54951 0 -2.54951
C -0.676138 -2.54951 -1.324674 -2.280877 -1.802776 -1.802776
C -2.280877 -1.324674 -2.54951 -0.676138 -2.54951 0
C -2.54951 0.676138 -2.280877 1.324674 -1.802776 1.802776
C -1.324674 2.280877 -0.676138 2.54951 0 2.54951
z
" style="stroke: #1d2126"/>
    </defs>
    <g clip-path="url(#p0c7bb0324b)">
     <use xlink:href="#m6747e8dc90" x="510.93504" y="254.721243" style="fill: #1d2126; stroke: #1d2126"/>
    </g>
   </g>
  </g>
  <g id="text_41">
   <!-- $E_{\mathrm{rel}}=p_0^2/(2m)$；转向点二分求根，无 ODE 数值积分 -->
   <g style="fill: #56606b" transform="translate(66.8268 318.4272)">
    <text>
     <tspan x="0" y="-0.211702" style="font-size: 10px; font-family: 'cmmi10'; fill: #56606b">E</tspan>
     <tspan x="27.501252" y="-0.211702" style="font-size: 10px; font-family: 'cmmi10'; fill: #56606b">p</tspan>
     <tspan x="37.729265" y="-0.211702" style="font-size: 10px; font-family: 'cmmi10'; fill: #56606b">=</tspan>
     <tspan x="51.611101" y="-0.211702" style="font-size: 10px; font-family: 'cmmi10'; fill: #56606b">m</tspan>
     <tspan x="7.37793" y="1.288295" style="font-size: 7px; font-family: 'cmr10'; fill: #56606b">r</tspan>
     <tspan x="10.115723" y="1.288295" style="font-size: 7px; font-family: 'cmr10'; fill: #56606b">e</tspan>
     <tspan x="13.222656" y="1.288295" style="font-size: 7px; font-family: 'cmr10'; fill: #56606b">l</tspan>
     <tspan x="32.530549" y="2.81875" style="font-size: 7px; font-family: 'cmr10'; fill: #56606b">0</tspan>
     <tspan x="33.657224" y="-4.340625" style="font-size: 7px; font-family: 'cmr10'; fill: #56606b">2</tspan>
     <tspan x="17.732692" y="-0.211702" style="font-size: 10px; font-family: 'cmr10'; fill: #56606b">=</tspan>
     <tspan x="42.729265" y="-0.211702" style="font-size: 10px; font-family: 'cmr10'; fill: #56606b">(</tspan>
     <tspan x="46.611101" y="-0.211702" style="font-size: 10px; font-family: 'cmr10'; fill: #56606b">2</tspan>
     <tspan x="60.390398" y="-0.211702" style="font-size: 10px; font-family: 'cmr10'; fill: #56606b">)</tspan>
     <tspan x="64.272234" y="-0.211702" style="font-size: 10px; font-family: 'Noto Serif CJK SC'; fill: #56606b">；</tspan>
     <tspan x="74.272219" y="-0.211702" style="font-size: 10px; font-family: 'Noto Serif CJK SC'; fill: #56606b">转</tspan>
     <tspan x="84.272203" y="-0.211702" style="font-size: 10px; font-family: 'Noto Serif CJK SC'; fill: #56606b">向</tspan>
     <tspan x="94.272188" y="-0.211702" style="font-size: 10px; font-family: 'Noto Serif CJK SC'; fill: #56606b">点</tspan>
     <tspan x="104.272173" y="-0.211702" style="font-size: 10px; font-family: 'Noto Serif CJK SC'; fill: #56606b">二</tspan>
     <tspan x="114.272158" y="-0.211702" style="font-size: 10px; font-family: 'Noto Serif CJK SC'; fill: #56606b">分</tspan>
     <tspan x="124.272142" y="-0.211702" style="font-size: 10px; font-family: 'Noto Serif CJK SC'; fill: #56606b">求</tspan>
     <tspan x="134.272127" y="-0.211702" style="font-size: 10px; font-family: 'Noto Serif CJK SC'; fill: #56606b">根</tspan>
     <tspan x="144.272112" y="-0.211702" style="font-size: 10px; font-family: 'Noto Serif CJK SC'; fill: #56606b">，</tspan>
     <tspan x="154.272096" y="-0.211702" style="font-size: 10px; font-family: 'Noto Serif CJK SC'; fill: #56606b">无</tspan>
     <tspan x="164.272081" y="-0.211702" style="font-size: 10px; font-family: 'Noto Serif CJK SC'; fill: #56606b"> </tspan>
     <tspan x="166.832079" y="-0.211702" style="font-size: 10px; font-family: 'Noto Serif CJK SC'; fill: #56606b">O</tspan>
     <tspan x="174.502077" y="-0.211702" style="font-size: 10px; font-family: 'Noto Serif CJK SC'; fill: #56606b">D</tspan>
     <tspan x="182.202074" y="-0.211702" style="font-size: 10px; font-family: 'Noto Serif CJK SC'; fill: #56606b">E</tspan>
     <tspan x="188.722063" y="-0.211702" style="font-size: 10px; font-family: 'Noto Serif CJK SC'; fill: #56606b"> </tspan>
     <tspan x="191.28206" y="-0.211702" style="font-size: 10px; font-family: 'Noto Serif CJK SC'; fill: #56606b">数</tspan>
     <tspan x="201.282045" y="-0.211702" style="font-size: 10px; font-family: 'Noto Serif CJK SC'; fill: #56606b">值</tspan>
     <tspan x="211.28203" y="-0.211702" style="font-size: 10px; font-family: 'Noto Serif CJK SC'; fill: #56606b">积</tspan>
     <tspan x="221.282015" y="-0.211702" style="font-size: 10px; font-family: 'Noto Serif CJK SC'; fill: #56606b">分</tspan>
    </text>
   </g>
  </g>
  <g id="text_42">
   <!-- $V(a+\delta)-V(a)=3c\delta^2+O(\delta^3)$ -->
   <g style="fill: #1d2126" transform="translate(430.29504 318.4272)">
    <text>
     <tspan x="0" y="-0.445292" style="font-size: 12px; font-family: 'cmmi10'; fill: #1d2126">V</tspan>
     <tspan x="11.654297" y="-0.445292" style="font-size: 12px; font-family: 'cmmi10'; fill: #1d2126">a</tspan>
     <tspan x="32.110561" y="-0.445292" style="font-size: 12px; font-family: 'cmmi10'; fill: #1d2126">±</tspan>
     <tspan x="56.217215" y="-0.445292" style="font-size: 12px; font-family: 'cmmi10'; fill: #1d2126">V</tspan>
     <tspan x="67.871512" y="-0.445292" style="font-size: 12px; font-family: 'cmmi10'; fill: #1d2126">a</tspan>
     <tspan x="98.985979" y="-0.445292" style="font-size: 12px; font-family: 'cmmi10'; fill: #1d2126">c</tspan>
     <tspan x="104.171526" y="-0.445292" style="font-size: 12px; font-family: 'cmmi10'; fill: #1d2126">±</tspan>
     <tspan x="130.542248" y="-0.445292" style="font-size: 12px; font-family: 'cmmi10'; fill: #1d2126">O</tspan>
     <tspan x="144.346936" y="-0.445292" style="font-size: 12px; font-family: 'cmmi10'; fill: #1d2126">±</tspan>
     <tspan x="6.996094" y="-0.445292" style="font-size: 12px; font-family: 'cmr10'; fill: #1d2126">(</tspan>
     <tspan x="20.388288" y="-0.445292" style="font-size: 12px; font-family: 'cmr10'; fill: #1d2126">+</tspan>
     <tspan x="37.436732" y="-0.445292" style="font-size: 12px; font-family: 'cmr10'; fill: #1d2126">)</tspan>
     <tspan x="63.213309" y="-0.445292" style="font-size: 12px; font-family: 'cmr10'; fill: #1d2126">(</tspan>
     <tspan x="74.205496" y="-0.445292" style="font-size: 12px; font-family: 'cmr10'; fill: #1d2126">)</tspan>
     <tspan x="81.263706" y="-0.445292" style="font-size: 12px; font-family: 'cmr10'; fill: #1d2126">=</tspan>
     <tspan x="92.985979" y="-0.445292" style="font-size: 12px; font-family: 'cmr10'; fill: #1d2126">3</tspan>
     <tspan x="118.819976" y="-0.445292" style="font-size: 12px; font-family: 'cmr10'; fill: #1d2126">+</tspan>
     <tspan x="139.688733" y="-0.445292" style="font-size: 12px; font-family: 'cmr10'; fill: #1d2126">(</tspan>
     <tspan x="156.59538" y="-0.445292" style="font-size: 12px; font-family: 'cmr10'; fill: #1d2126">)</tspan>
     <tspan x="44.494942" y="-0.445292" style="font-size: 12px; font-family: 'cmsy10'; fill: #1d2126">¡</tspan>
     <tspan x="111.533519" y="-5.4" style="font-size: 8.4px; font-family: 'cmr10'; fill: #1d2126">2</tspan>
     <tspan x="151.70893" y="-5.4" style="font-size: 8.4px; font-family: 'cmr10'; fill: #1d2126">3</tspan>
    </text>
   </g>
  </g>
 </g>
 <defs>
  <clipPath id="pcc0d72028e">
   <rect x="53.08416" y="62.05248" width="258.78528" height="195.9552"/>
  </clipPath>
  <clipPath id="p0c7bb0324b">
   <rect x="378.22464" y="62.05248" width="265.4208" height="195.9552"/>
  </clipPath>
 </defs>
</svg>
