<svg xmlns="http://www.w3.org/2000/svg" viewBox="0 0 960 300" role="img" aria-labelledby="t d">
  <title id="t">H0mework · 未干的地图</title>
  <desc id="d">An unfinished map grows from a single source. Each region appears only against one already drawn, across an edge they share; a vermilion lineage records where it grew from. The newest regions are still wet.</desc>
  <style>
    :root { --paper:#f6f1e6; --ink:#3a342d; --wash:#56789a; --seal:#b3372c; }
    @media (prefers-color-scheme: dark) {
      :root { --paper:#121416; --ink:#d8d0bf; --wash:#86a7c6; --seal:#d4564a; }
    }
    .paper { fill:var(--paper); }
    .wash { fill:var(--wash); animation:wet 4s ease-out backwards; }
    .edge { fill:none; stroke:var(--ink); stroke-width:.75; stroke-linejoin:round; stroke-linecap:round; opacity:.5;
             animation:fade 1.2s ease-out backwards; }
    .trace { fill:none; stroke:var(--seal); stroke-width:.85; stroke-linecap:round; opacity:.36;
              stroke-dasharray:1; animation:draw .45s ease-out backwards; }
    .source { fill:var(--seal); transform-box:fill-box; transform-origin:center;
               animation:breathe 5s ease-in-out infinite; }
    .ring { fill:none; stroke:var(--seal); stroke-width:.8; transform-box:fill-box; transform-origin:center;
             opacity:0; animation:ring 5s ease-out infinite; }
    .spark { fill:var(--seal); }
    .frame { fill:var(--paper); stroke:var(--ink); stroke-width:.8; }
    .frame2 { fill:none; stroke:var(--ink); stroke-width:.4; opacity:.6; }
    .title { fill:var(--ink); font:400 40px "Iowan Old Style",Palatino,"Palatino Linotype",Georgia,serif; letter-spacing:.03em; }
    .zh { fill:var(--ink); font:400 15px "Songti SC",STSong,"Noto Serif CJK SC","Source Han Serif SC",serif; letter-spacing:.3em; opacity:.8; }
    .en { fill:var(--ink); font:italic 400 12.5px "Iowan Old Style",Palatino,Georgia,serif; letter-spacing:.06em; opacity:.6; }
    .seal rect { fill:var(--seal); }
    .seal text { fill:var(--paper); font:400 19px "Songti SC",STSong,"Noto Serif CJK SC",serif; }
    .fade { animation:fade 1.8s ease-out backwards; }
    @keyframes draw { from { stroke-dashoffset:1; } }
    @keyframes wet { 0% { opacity:0; } 12% { opacity:.55; } }
    @keyframes fade { from { opacity:0; } }
    @keyframes breathe { 0%,100% { transform:scale(1); } 50% { transform:scale(1.3); } }
    @keyframes ring { 0% { transform:scale(.2); opacity:.6; } 100% { transform:scale(1); opacity:0; } }
    @media (prefers-reduced-motion: reduce) { * { animation:none !important; } .spark { display:none; } }
  </style>
  <defs>
    <filter id="wet" x="-8%" y="-10%" width="116%" height="120%">
      <feTurbulence type="fractalNoise" baseFrequency=".03" numOctaves="3" seed="7"/>
      <feDisplacementMap in="SourceGraphic" scale="9" result="bled"/>
      <feGaussianBlur in="bled" stdDeviation="2.2"/>
    </filter>
    <filter id="hand" x="-5%" y="-5%" width="110%" height="110%">
      <feTurbulence type="fractalNoise" baseFrequency=".06" numOctaves="2" seed="3"/>
      <feDisplacementMap in="SourceGraphic" scale="1.6"/>
    </filter>
  </defs>

  <rect class="paper" width="960" height="300" rx="14"/>

  <g filter="url(#wet)">
    <path class="wash" style="animation-delay:0.50s;opacity:0.030" d="M161.2 185.0 L135.2 180.6 L116.3 152.6 L125.9 131.0 L146.0 120.8 L168.5 130.1 L180.2 152.7Z"/>
    <path class="wash" style="animation-delay:0.66s;opacity:0.030" d="M215.4 151.4 L180.2 152.7 L168.5 130.1 L195.1 100.8 L202.7 101.3 L227.9 132.9Z"/>
    <path class="wash" style="animation-delay:0.82s;opacity:0.030" d="M148.4 79.7 L146.0 120.8 L125.9 131.0 L92.2 92.6 L127.4 70.3Z"/>
    <path class="wash" style="animation-delay:0.98s;opacity:0.030" d="M119.6 199.3 L135.2 180.6 L161.2 185.0 L169.9 198.9 L143.2 240.6 L123.3 240.8 L122.7 240.1Z"/>
    <path class="wash" style="animation-delay:1.14s;opacity:0.031" d="M195.1 100.8 L168.5 130.1 L146.0 120.8 L148.4 79.7 L168.0 71.9Z"/>
    <path class="wash" style="animation-delay:1.30s;opacity:0.031" d="M92.2 92.6 L125.9 131.0 L116.3 152.6 L86.0 155.6 L65.7 136.4 L88.8 92.5Z"/>
    <path class="wash" style="animation-delay:1.46s;opacity:0.031" d="M195.4 211.9 L169.9 198.9 L161.2 185.0 L180.2 152.7 L215.4 151.4 L227.6 186.2 L223.6 195.9Z"/>
    <path class="wash" style="animation-delay:1.62s;opacity:0.032" d="M116.3 152.6 L135.2 180.6 L119.6 199.3 L83.1 200.8 L74.5 187.4 L86.0 155.6Z"/>
    <path class="wash" style="animation-delay:1.78s;opacity:0.033" d="M83.1 200.8 L119.6 199.3 L122.7 240.1 L78.4 228.8Z"/>
    <path class="wash" style="animation-delay:1.94s;opacity:0.034" d="M225.5 73.4 L202.7 101.3 L195.1 100.8 L168.0 71.9 L183.0 43.8 L213.5 50.2Z"/>
    <path class="wash" style="animation-delay:2.10s;opacity:0.035" d="M168.4 262.6 L143.2 240.6 L169.9 198.9 L195.4 211.9 L196.9 226.7Z"/>
    <path class="wash" style="animation-delay:2.26s;opacity:0.036" d="M252.3 228.3 L223.6 195.9 L227.6 186.2 L273.0 176.3 L284.5 183.9 L282.6 214.4Z"/>
    <path class="wash" style="animation-delay:2.42s;opacity:0.038" d="M130.8 296.3 L115.0 263.7 L123.3 240.8 L143.2 240.6 L168.4 262.6 L168.8 264.7 L134.2 297.0Z"/>
    <path class="wash" style="animation-delay:2.58s;opacity:0.040" d="M197.2 288.5 L168.8 264.7 L168.4 262.6 L196.9 226.7 L222.4 253.3 L218.4 274.7Z"/>
    <path class="wash" style="animation-delay:2.74s;opacity:0.042" d="M249.3 126.9 L227.9 132.9 L202.7 101.3 L225.5 73.4 L253.0 81.4 L255.2 85.3Z"/>
    <path class="wash" style="animation-delay:2.90s;opacity:0.044" d="M273.0 176.3 L227.6 186.2 L215.4 151.4 L227.9 132.9 L249.3 126.9 L262.6 134.4Z"/>
    <path class="wash" style="animation-delay:3.06s;opacity:0.046" d="M222.4 253.3 L196.9 226.7 L195.4 211.9 L223.6 195.9 L252.3 228.3 L248.9 238.9Z"/>
    <path class="wash" style="animation-delay:3.22s;opacity:0.049" d="M251.8 290.9 L218.4 274.7 L222.4 253.3 L248.9 238.9 L269.2 266.7Z"/>
    <path class="wash" style="animation-delay:3.38s;opacity:0.052" d="M269.2 266.7 L248.9 238.9 L252.3 228.3 L282.6 214.4 L304.0 235.2 L291.6 264.4Z"/>
    <path class="wash" style="animation-delay:3.54s;opacity:0.055" d="M253.0 81.4 L225.5 73.4 L213.5 50.2 L240.4 22.7 L271.6 33.2 L272.6 36.6Z"/>
    <path class="wash" style="animation-delay:3.70s;opacity:0.058" d="M255.2 85.3 L253.0 81.4 L272.6 36.6 L310.1 63.1 L299.1 90.8Z"/>
    <path class="wash" style="animation-delay:3.86s;opacity:0.062" d="M319.8 233.2 L304.0 235.2 L282.6 214.4 L284.5 183.9 L316.9 171.1 L332.5 178.7 L338.5 208.4Z"/>
    <path class="wash" style="animation-delay:4.02s;opacity:0.066" d="M316.9 171.1 L284.5 183.9 L273.0 176.3 L262.6 134.4 L287.2 127.0 L315.0 146.1Z"/>
    <path class="wash" style="animation-delay:4.18s;opacity:0.070" d="M287.2 127.0 L262.6 134.4 L249.3 126.9 L255.2 85.3 L299.1 90.8 L300.9 95.5Z"/>
    <path class="wash" style="animation-delay:4.34s;opacity:0.075" d="M315.0 146.1 L287.2 127.0 L300.9 95.5 L339.5 115.5Z"/>
    <path class="wash" style="animation-delay:4.50s;opacity:0.080" d="M364.9 217.4 L338.5 208.4 L332.5 178.7 L373.9 160.7 L397.0 194.0Z"/>
    <path class="wash" style="animation-delay:4.66s;opacity:0.085" d="M332.5 178.7 L316.9 171.1 L315.0 146.1 L339.5 115.5 L345.0 114.2 L375.5 153.6 L373.9 160.7Z"/>
    <path class="wash" style="animation-delay:4.82s;opacity:0.090" d="M351.1 266.0 L319.8 233.2 L338.5 208.4 L364.9 217.4 L370.5 248.9Z"/>
    <path class="wash" style="animation-delay:4.98s;opacity:0.096" d="M375.5 153.6 L345.0 114.2 L348.9 107.7 L390.9 92.7 L408.7 128.2Z"/>
    <path class="wash" style="animation-delay:5.14s;opacity:0.102" d="M306.3 286.9 L291.6 264.4 L304.0 235.2 L319.8 233.2 L351.1 266.0 L350.5 269.6Z"/>
    <path class="wash" style="animation-delay:5.30s;opacity:0.108" d="M345.0 114.2 L339.5 115.5 L300.9 95.5 L299.1 90.8 L310.1 63.1 L319.9 59.5 L343.1 70.7 L348.9 107.7Z"/>
    <path class="wash" style="animation-delay:5.46s;opacity:0.115" d="M390.9 92.7 L348.9 107.7 L343.1 70.7 L373.2 55.5 L392.3 87.4Z"/>
    <path class="wash" style="animation-delay:5.62s;opacity:0.122" d="M373.2 55.5 L343.1 70.7 L319.9 59.5 L330.7 28.5 L360.7 21.1 L375.7 45.0Z"/>
    <path class="wash" style="animation-delay:5.78s;opacity:0.129" d="M319.9 59.5 L310.1 63.1 L272.6 36.6 L271.6 33.2 L290.5 7.0 L306.1 3.7 L330.7 28.5Z"/>
    <path class="wash" style="animation-delay:5.94s;opacity:0.137" d="M373.9 160.7 L375.5 153.6 L408.7 128.2 L421.5 130.1 L436.7 181.6 L406.8 197.7 L397.0 194.0Z"/>
    <path class="wash" style="animation-delay:6.10s;opacity:0.145" d="M450.6 114.7 L421.5 130.1 L408.7 128.2 L390.9 92.7 L392.3 87.4 L430.2 68.1 L450.6 114.7Z"/>
    <path class="wash" style="animation-delay:6.26s;opacity:0.153" d="M370.5 248.9 L364.9 217.4 L397.0 194.0 L406.8 197.7 L415.1 234.1 L395.9 250.2Z"/>
    <path class="wash" style="animation-delay:6.42s;opacity:0.162" d="M436.7 181.6 L421.5 130.1 L450.6 114.7 L476.9 139.7 L457.3 179.7 L450.4 183.6Z"/>
    <path class="wash" style="animation-delay:6.58s;opacity:0.171" d="M450.6 114.7 L430.2 68.1 L431.7 63.9 L468.8 56.6 L488.3 75.5 L488.8 80.0Z"/>
    <path class="wash" style="animation-delay:6.74s;opacity:0.181" d="M523.8 108.3 L522.3 108.4 L488.8 80.0 L488.3 75.5 L521.2 42.9 L547.3 53.8 L550.3 83.4Z"/>
    <path class="wash" style="animation-delay:6.90s;opacity:0.191" d="M430.2 68.1 L392.3 87.4 L373.2 55.5 L375.7 45.0 L419.0 33.6 L431.7 63.9Z"/>
    <path class="wash" style="animation-delay:7.06s;opacity:0.201" d="M476.9 139.7 L450.6 114.7 L450.6 114.7 L488.8 80.0 L522.3 108.4 L494.0 139.7Z"/>
    <path class="wash" style="animation-delay:7.22s;opacity:0.211" d="M445.1 247.2 L415.1 234.1 L406.8 197.7 L436.7 181.6 L450.4 183.6 L465.6 232.6Z"/>
    <path class="wash" style="animation-delay:7.38s;opacity:0.222" d="M472.5 298.1 L445.5 274.2 L445.1 247.2 L465.6 232.6 L482.1 233.7 L499.8 249.4 L503.7 278.3Z"/>
    <path class="wash" style="animation-delay:7.54s;opacity:0.234" d="M465.6 232.6 L450.4 183.6 L457.3 179.7 L500.5 190.4 L502.5 198.0 L482.1 233.7Z"/>
    <path class="wash" style="animation-delay:7.70s;opacity:0.246" d="M457.3 179.7 L476.9 139.7 L494.0 139.7 L512.1 167.7 L500.5 190.4Z"/>
    <path class="wash" style="animation-delay:7.86s;opacity:0.258" d="M502.5 198.0 L500.5 190.4 L512.1 167.7 L544.0 166.0 L551.9 192.9 L532.1 211.9Z"/>
    <path class="wash" style="animation-delay:8.02s;opacity:0.270" d="M551.9 192.9 L544.0 166.0 L556.0 148.0 L561.5 146.9 L605.8 179.2 L597.9 193.5 L576.5 202.9Z"/>
    <path class="wash" style="animation-delay:8.18s;opacity:0.283" d="M576.5 202.9 L597.9 193.5 L614.0 223.7 L598.5 248.8 L571.5 234.9Z"/>
    <path class="wash" style="animation-delay:8.34s;opacity:0.297" d="M532.1 211.9 L551.9 192.9 L576.5 202.9 L571.5 234.9 L552.6 244.9 L533.6 232.1Z"/>
    <path class="wash" style="animation-delay:8.50s;opacity:0.310" d="M499.8 249.4 L482.1 233.7 L502.5 198.0 L532.1 211.9 L533.6 232.1Z"/>
    <path class="wash" style="animation-delay:8.66s;opacity:0.325" d="M512.1 167.7 L494.0 139.7 L522.3 108.4 L523.8 108.3 L556.0 148.0 L544.0 166.0Z"/>
    <path class="wash" style="animation-delay:8.82s;opacity:0.339" d="M556.0 148.0 L523.8 108.3 L550.3 83.4 L578.0 94.7 L589.8 117.0 L561.5 146.9Z"/>
    <path class="wash" style="animation-delay:8.98s;opacity:0.354" d="M589.8 117.0 L578.0 94.7 L607.2 63.1 L635.4 89.1 L630.2 105.9 L601.4 119.8Z"/>
    <path class="wash" style="animation-delay:9.14s;opacity:0.370" d="M605.8 179.2 L561.5 146.9 L589.8 117.0 L601.4 119.8 L615.9 156.5 L606.3 178.9Z"/>
  </g>
  <g filter="url(#hand)">
    <path class="edge" style="animation-delay:0.50s" d="M161.2 185.0 L135.2 180.6 M135.2 180.6 L116.3 152.6 M116.3 152.6 L125.9 131.0 M125.9 131.0 L146.0 120.8 M146.0 120.8 L168.5 130.1 M168.5 130.1 L180.2 152.7 M180.2 152.7 L161.2 185.0"/>
    <path class="edge" style="animation-delay:0.66s" d="M215.4 151.4 L180.2 152.7 M168.5 130.1 L195.1 100.8 M195.1 100.8 L202.7 101.3 M202.7 101.3 L227.9 132.9 M227.9 132.9 L215.4 151.4"/>
    <path class="edge" style="animation-delay:0.82s" d="M148.4 79.7 L146.0 120.8 M125.9 131.0 L92.2 92.6 M92.2 92.6 L127.4 70.3 M127.4 70.3 L148.4 79.7"/>
    <path class="edge" style="animation-delay:0.98s" d="M119.6 199.3 L135.2 180.6 M161.2 185.0 L169.9 198.9 M169.9 198.9 L143.2 240.6 M143.2 240.6 L123.3 240.8 M123.3 240.8 L122.7 240.1 M122.7 240.1 L119.6 199.3"/>
    <path class="edge" style="animation-delay:1.14s" d="M148.4 79.7 L168.0 71.9 M168.0 71.9 L195.1 100.8"/>
    <path class="edge" style="animation-delay:1.30s" d="M116.3 152.6 L86.0 155.6 M86.0 155.6 L65.7 136.4 M65.7 136.4 L88.8 92.5 M88.8 92.5 L92.2 92.6"/>
    <path class="edge" style="animation-delay:1.46s" d="M195.4 211.9 L169.9 198.9 M215.4 151.4 L227.6 186.2 M227.6 186.2 L223.6 195.9 M223.6 195.9 L195.4 211.9"/>
    <path class="edge" style="animation-delay:1.62s" d="M119.6 199.3 L83.1 200.8 M83.1 200.8 L74.5 187.4 M74.5 187.4 L86.0 155.6"/>
    <path class="edge" style="animation-delay:1.78s" d="M122.7 240.1 L78.4 228.8 M78.4 228.8 L83.1 200.8"/>
    <path class="edge" style="animation-delay:1.94s" d="M225.5 73.4 L202.7 101.3 M168.0 71.9 L183.0 43.8 M183.0 43.8 L213.5 50.2 M213.5 50.2 L225.5 73.4"/>
    <path class="edge" style="animation-delay:2.10s" d="M168.4 262.6 L143.2 240.6 M195.4 211.9 L196.9 226.7 M196.9 226.7 L168.4 262.6"/>
    <path class="edge" style="animation-delay:2.26s" d="M252.3 228.3 L223.6 195.9 M227.6 186.2 L273.0 176.3 M273.0 176.3 L284.5 183.9 M284.5 183.9 L282.6 214.4 M282.6 214.4 L252.3 228.3"/>
    <path class="edge" style="animation-delay:2.42s" d="M130.8 296.3 L115.0 263.7 M115.0 263.7 L123.3 240.8 M168.4 262.6 L168.8 264.7 M168.8 264.7 L134.2 297.0 M134.2 297.0 L130.8 296.3"/>
    <path class="edge" style="animation-delay:2.58s" d="M197.2 288.5 L168.8 264.7 M196.9 226.7 L222.4 253.3 M222.4 253.3 L218.4 274.7 M218.4 274.7 L197.2 288.5"/>
    <path class="edge" style="animation-delay:2.74s" d="M249.3 126.9 L227.9 132.9 M225.5 73.4 L253.0 81.4 M253.0 81.4 L255.2 85.3 M255.2 85.3 L249.3 126.9"/>
    <path class="edge" style="animation-delay:2.90s" d="M249.3 126.9 L262.6 134.4 M262.6 134.4 L273.0 176.3"/>
    <path class="edge" style="animation-delay:3.06s" d="M252.3 228.3 L248.9 238.9 M248.9 238.9 L222.4 253.3"/>
    <path class="edge" style="animation-delay:3.22s" d="M251.8 290.9 L218.4 274.7 M248.9 238.9 L269.2 266.7 M269.2 266.7 L251.8 290.9"/>
    <path class="edge" style="animation-delay:3.38s" d="M282.6 214.4 L304.0 235.2 M304.0 235.2 L291.6 264.4 M291.6 264.4 L269.2 266.7"/>
    <path class="edge" style="animation-delay:3.54s" d="M213.5 50.2 L240.4 22.7 M240.4 22.7 L271.6 33.2 M271.6 33.2 L272.6 36.6 M272.6 36.6 L253.0 81.4"/>
    <path class="edge" style="animation-delay:3.70s" d="M272.6 36.6 L310.1 63.1 M310.1 63.1 L299.1 90.8 M299.1 90.8 L255.2 85.3"/>
    <path class="edge" style="animation-delay:3.86s" d="M319.8 233.2 L304.0 235.2 M284.5 183.9 L316.9 171.1 M316.9 171.1 L332.5 178.7 M332.5 178.7 L338.5 208.4 M338.5 208.4 L319.8 233.2"/>
    <path class="edge" style="animation-delay:4.02s" d="M262.6 134.4 L287.2 127.0 M287.2 127.0 L315.0 146.1 M315.0 146.1 L316.9 171.1"/>
    <path class="edge" style="animation-delay:4.18s" d="M299.1 90.8 L300.9 95.5 M300.9 95.5 L287.2 127.0"/>
    <path class="edge" style="animation-delay:4.34s" d="M300.9 95.5 L339.5 115.5 M339.5 115.5 L315.0 146.1"/>
    <path class="edge" style="animation-delay:4.50s" d="M364.9 217.4 L338.5 208.4 M332.5 178.7 L373.9 160.7 M373.9 160.7 L397.0 194.0 M397.0 194.0 L364.9 217.4"/>
    <path class="edge" style="animation-delay:4.66s" d="M339.5 115.5 L345.0 114.2 M345.0 114.2 L375.5 153.6 M375.5 153.6 L373.9 160.7"/>
    <path class="edge" style="animation-delay:4.82s" d="M351.1 266.0 L319.8 233.2 M364.9 217.4 L370.5 248.9 M370.5 248.9 L351.1 266.0"/>
    <path class="edge" style="animation-delay:4.98s" d="M345.0 114.2 L348.9 107.7 M348.9 107.7 L390.9 92.7 M390.9 92.7 L408.7 128.2 M408.7 128.2 L375.5 153.6"/>
    <path class="edge" style="animation-delay:5.14s" d="M306.3 286.9 L291.6 264.4 M351.1 266.0 L350.5 269.6 M350.5 269.6 L306.3 286.9"/>
    <path class="edge" style="animation-delay:5.30s" d="M310.1 63.1 L319.9 59.5 M319.9 59.5 L343.1 70.7 M343.1 70.7 L348.9 107.7"/>
    <path class="edge" style="animation-delay:5.46s" d="M343.1 70.7 L373.2 55.5 M373.2 55.5 L392.3 87.4 M392.3 87.4 L390.9 92.7"/>
    <path class="edge" style="animation-delay:5.62s" d="M319.9 59.5 L330.7 28.5 M330.7 28.5 L360.7 21.1 M360.7 21.1 L375.7 45.0 M375.7 45.0 L373.2 55.5"/>
    <path class="edge" style="animation-delay:5.78s" d="M271.6 33.2 L290.5 7.0 M290.5 7.0 L306.1 3.7 M306.1 3.7 L330.7 28.5"/>
    <path class="edge" style="animation-delay:5.94s" d="M408.7 128.2 L421.5 130.1 M421.5 130.1 L436.7 181.6 M436.7 181.6 L406.8 197.7 M406.8 197.7 L397.0 194.0"/>
    <path class="edge" style="animation-delay:6.10s" d="M450.6 114.7 L421.5 130.1 M392.3 87.4 L430.2 68.1 M430.2 68.1 L450.6 114.7"/>
    <path class="edge" style="animation-delay:6.26s" d="M406.8 197.7 L415.1 234.1 M415.1 234.1 L395.9 250.2 M395.9 250.2 L370.5 248.9"/>
    <path class="edge" style="animation-delay:6.42s" d="M450.6 114.7 L476.9 139.7 M476.9 139.7 L457.3 179.7 M457.3 179.7 L450.4 183.6 M450.4 183.6 L436.7 181.6"/>
    <path class="edge" style="animation-delay:6.58s" d="M430.2 68.1 L431.7 63.9 M431.7 63.9 L468.8 56.6 M468.8 56.6 L488.3 75.5 M488.3 75.5 L488.8 80.0 M488.8 80.0 L450.6 114.7"/>
    <path class="edge" style="animation-delay:6.74s" d="M523.8 108.3 L522.3 108.4 M522.3 108.4 L488.8 80.0 M488.3 75.5 L521.2 42.9 M521.2 42.9 L547.3 53.8 M547.3 53.8 L550.3 83.4 M550.3 83.4 L523.8 108.3"/>
    <path class="edge" style="animation-delay:6.90s" d="M375.7 45.0 L419.0 33.6 M419.0 33.6 L431.7 63.9"/>
    <path class="edge" style="animation-delay:7.06s" d="M522.3 108.4 L494.0 139.7 M494.0 139.7 L476.9 139.7"/>
    <path class="edge" style="animation-delay:7.22s" d="M445.1 247.2 L415.1 234.1 M450.4 183.6 L465.6 232.6 M465.6 232.6 L445.1 247.2"/>
    <path class="edge" style="animation-delay:7.38s" d="M472.5 298.1 L445.5 274.2 M445.5 274.2 L445.1 247.2 M465.6 232.6 L482.1 233.7 M482.1 233.7 L499.8 249.4 M499.8 249.4 L503.7 278.3 M503.7 278.3 L472.5 298.1"/>
    <path class="edge" style="animation-delay:7.54s" d="M457.3 179.7 L500.5 190.4 M500.5 190.4 L502.5 198.0 M502.5 198.0 L482.1 233.7"/>
    <path class="edge" style="animation-delay:7.70s" d="M494.0 139.7 L512.1 167.7 M512.1 167.7 L500.5 190.4"/>
    <path class="edge" style="animation-delay:7.86s" d="M512.1 167.7 L544.0 166.0 M544.0 166.0 L551.9 192.9 M551.9 192.9 L532.1 211.9 M532.1 211.9 L502.5 198.0"/>
    <path class="edge" style="animation-delay:8.02s" d="M544.0 166.0 L556.0 148.0 M556.0 148.0 L561.5 146.9 M561.5 146.9 L605.8 179.2 M605.8 179.2 L597.9 193.5 M597.9 193.5 L576.5 202.9 M576.5 202.9 L551.9 192.9"/>
    <path class="edge" style="animation-delay:8.18s" d="M597.9 193.5 L614.0 223.7 M614.0 223.7 L598.5 248.8 M598.5 248.8 L571.5 234.9 M571.5 234.9 L576.5 202.9"/>
    <path class="edge" style="animation-delay:8.34s" d="M571.5 234.9 L552.6 244.9 M552.6 244.9 L533.6 232.1 M533.6 232.1 L532.1 211.9"/>
    <path class="edge" style="animation-delay:8.50s" d="M533.6 232.1 L499.8 249.4"/>
    <path class="edge" style="animation-delay:8.66s" d="M523.8 108.3 L556.0 148.0"/>
    <path class="edge" style="animation-delay:8.82s" d="M550.3 83.4 L578.0 94.7 M578.0 94.7 L589.8 117.0 M589.8 117.0 L561.5 146.9"/>
    <path class="edge" style="animation-delay:8.98s" d="M578.0 94.7 L607.2 63.1 M607.2 63.1 L635.4 89.1 M635.4 89.1 L630.2 105.9 M630.2 105.9 L601.4 119.8 M601.4 119.8 L589.8 117.0"/>
    <path class="edge" style="animation-delay:9.14s" d="M601.4 119.8 L615.9 156.5 M615.9 156.5 L606.3 178.9 M606.3 178.9 L605.8 179.2"/>
  </g>
  <g>
    <path class="trace" pathLength="1" style="animation-delay:0.58s" d="M148.4 152.7 L197.9 130.3"/>
    <path class="trace" pathLength="1" style="animation-delay:0.74s" d="M148.4 152.7 L125.7 99.0"/>
    <path class="trace" pathLength="1" style="animation-delay:0.90s" d="M148.4 152.7 L141.3 209.4"/>
    <path class="trace" pathLength="1" style="animation-delay:1.06s" d="M148.4 152.7 L166.4 101.1"/>
    <path class="trace" pathLength="1" style="animation-delay:1.22s" d="M148.4 152.7 L95.6 129.1"/>
    <path class="trace" pathLength="1" style="animation-delay:1.38s" d="M148.4 152.7 L195.6 180.2"/>
    <path class="trace" pathLength="1" style="animation-delay:1.54s" d="M148.4 152.7 L103.5 178.1"/>
    <path class="trace" pathLength="1" style="animation-delay:1.70s" d="M141.3 209.4 L102.1 218.0"/>
    <path class="trace" pathLength="1" style="animation-delay:1.86s" d="M197.9 130.3 L196.9 71.0"/>
    <path class="trace" pathLength="1" style="animation-delay:2.02s" d="M141.3 209.4 L171.5 229.8"/>
    <path class="trace" pathLength="1" style="animation-delay:2.18s" d="M195.6 180.2 L257.5 200.0"/>
    <path class="trace" pathLength="1" style="animation-delay:2.34s" d="M141.3 209.4 L138.8 265.3"/>
    <path class="trace" pathLength="1" style="animation-delay:2.50s" d="M171.5 229.8 L197.5 259.5"/>
    <path class="trace" pathLength="1" style="animation-delay:2.66s" d="M197.9 130.3 L232.0 102.4"/>
    <path class="trace" pathLength="1" style="animation-delay:2.82s" d="M197.9 130.3 L243.9 157.1"/>
    <path class="trace" pathLength="1" style="animation-delay:2.98s" d="M195.6 180.2 L223.0 224.9"/>
    <path class="trace" pathLength="1" style="animation-delay:3.14s" d="M197.5 259.5 L243.3 265.3"/>
    <path class="trace" pathLength="1" style="animation-delay:3.30s" d="M257.5 200.0 L276.9 241.2"/>
    <path class="trace" pathLength="1" style="animation-delay:3.46s" d="M196.9 71.0 L243.5 51.3"/>
    <path class="trace" pathLength="1" style="animation-delay:3.62s" d="M232.0 102.4 L281.4 68.1"/>
    <path class="trace" pathLength="1" style="animation-delay:3.78s" d="M257.5 200.0 L310.2 202.7"/>
    <path class="trace" pathLength="1" style="animation-delay:3.94s" d="M257.5 200.0 L289.7 155.1"/>
    <path class="trace" pathLength="1" style="animation-delay:4.10s" d="M232.0 102.4 L272.7 108.6"/>
    <path class="trace" pathLength="1" style="animation-delay:4.26s" d="M289.7 155.1 L311.4 120.6"/>
    <path class="trace" pathLength="1" style="animation-delay:4.42s" d="M310.2 202.7 L362.9 190.0"/>
    <path class="trace" pathLength="1" style="animation-delay:4.58s" d="M310.2 202.7 L342.2 149.5"/>
    <path class="trace" pathLength="1" style="animation-delay:4.74s" d="M310.2 202.7 L347.7 235.4"/>
    <path class="trace" pathLength="1" style="animation-delay:4.90s" d="M342.2 149.5 L378.0 121.1"/>
    <path class="trace" pathLength="1" style="animation-delay:5.06s" d="M276.9 241.2 L318.1 260.3"/>
    <path class="trace" pathLength="1" style="animation-delay:5.22s" d="M281.4 68.1 L325.8 87.2"/>
    <path class="trace" pathLength="1" style="animation-delay:5.38s" d="M378.0 121.1 L365.6 82.2"/>
    <path class="trace" pathLength="1" style="animation-delay:5.54s" d="M325.8 87.2 L347.9 46.1"/>
    <path class="trace" pathLength="1" style="animation-delay:5.70s" d="M243.5 51.3 L303.0 32.6"/>
    <path class="trace" pathLength="1" style="animation-delay:5.86s" d="M362.9 190.0 L406.8 163.4"/>
    <path class="trace" pathLength="1" style="animation-delay:6.02s" d="M378.0 121.1 L420.6 101.0"/>
    <path class="trace" pathLength="1" style="animation-delay:6.18s" d="M362.9 190.0 L390.3 224.7"/>
    <path class="trace" pathLength="1" style="animation-delay:6.34s" d="M406.8 163.4 L448.2 148.3"/>
    <path class="trace" pathLength="1" style="animation-delay:6.50s" d="M420.6 101.0 L458.4 80.6"/>
    <path class="trace" pathLength="1" style="animation-delay:6.66s" d="M458.4 80.6 L522.5 74.8"/>
    <path class="trace" pathLength="1" style="animation-delay:6.82s" d="M365.6 82.2 L402.4 58.8"/>
    <path class="trace" pathLength="1" style="animation-delay:6.98s" d="M420.6 101.0 L486.8 112.4"/>
    <path class="trace" pathLength="1" style="animation-delay:7.14s" d="M406.8 163.4 L436.3 214.2"/>
    <path class="trace" pathLength="1" style="animation-delay:7.30s" d="M436.3 214.2 L473.7 263.3"/>
    <path class="trace" pathLength="1" style="animation-delay:7.46s" d="M448.2 148.3 L475.6 204.8"/>
    <path class="trace" pathLength="1" style="animation-delay:7.62s" d="M448.2 148.3 L486.2 165.8"/>
    <path class="trace" pathLength="1" style="animation-delay:7.78s" d="M475.6 204.8 L526.8 187.1"/>
    <path class="trace" pathLength="1" style="animation-delay:7.94s" d="M526.8 187.1 L571.8 176.9"/>
    <path class="trace" pathLength="1" style="animation-delay:8.10s" d="M571.8 176.9 L591.9 221.4"/>
    <path class="trace" pathLength="1" style="animation-delay:8.26s" d="M526.8 187.1 L554.3 218.7"/>
    <path class="trace" pathLength="1" style="animation-delay:8.42s" d="M473.7 263.3 L508.8 224.4"/>
    <path class="trace" pathLength="1" style="animation-delay:8.58s" d="M522.5 74.8 L524.7 142.6"/>
    <path class="trace" pathLength="1" style="animation-delay:8.74s" d="M522.5 74.8 L557.8 113.8"/>
    <path class="trace" pathLength="1" style="animation-delay:8.90s" d="M557.8 113.8 L606.7 94.1"/>
    <path class="trace" pathLength="1" style="animation-delay:9.06s" d="M571.8 176.9 L592.5 146.9"/>
  </g>

  <circle class="ring" cx="148.4" cy="152.7" r="26"/>
  <circle class="source" cx="148.4" cy="152.7" r="3.6"/>

  <circle class="spark" r="2" opacity="0">
    <animateMotion dur="6s" begin="11.6s;spark.end+9s" id="spark" path="M148.4 152.7 L195.6 180.2 L257.5 200.0 L310.2 202.7 L342.2 149.5 L378.0 121.1 L420.6 101.0 L458.4 80.6 L522.5 74.8 L557.8 113.8 L606.7 94.1" calcMode="spline" keyPoints="0;1" keyTimes="0;1" keySplines=".4 0 .5 1"/>
    <animate attributeName="opacity" values="0;.95;.95;0" keyTimes="0;.08;.9;1" dur="6s" begin="11.6s;spark.end+9s"/>
  </circle>

  <g class="fade" style="animation-delay:4.5s">
    <rect class="frame" x="668" y="172" width="260" height="106" rx="2"/>
    <rect class="frame2" x="673" y="177" width="250" height="96" rx="1"/>
    <text class="title" x="692" y="224">H0mework</text>
    <g class="seal" transform="translate(904 160) rotate(-4)">
      <rect width="28" height="28" rx="2.5"/>
      <text x="14" y="20.5" text-anchor="middle">源</text>
    </g>
    <text class="zh" x="693" y="252">未干的地图</text>
    <text class="en" x="693" y="268">The Unfinished Map</text>
  </g>
</svg>
